<?xml version="1.0" standalone="no"?>
<svg xmlns:xlink="http://www.w3.org/1999/xlink" xmlns="http://www.w3.org/2000/svg" class="vtree" width="980" height="auto"><style>
.vtree-node text { font: 14px sans-serif; }
.vtree-link { fill: none; stroke: #888; stroke-width: 2px; }
.vtree-table { stroke-width: 2px; stroke: steelblue; }
path.vtree-table { fill: white; }
g.vtree-node rect { fill: white; stroke: black; stroke-width: 1px; }
g.vtree-node rect.number-text { fill: #d8f0ed; }
g.vtree-node rect.string-text { fill: #e7f0db; }
g.vtree-node rect.boolean-text { fill: #e1d8f0; }
g.vtree-node rect.null-text { fill: #888; }
</style><g class="vtree-root"><g class="vtree-node" transform="translate(480,246)"><g class="vtree-node" transform="translate(-97,0)"><path class="vtree-link" d="M97,36C97,101 591,101 591,166"/><path class="vtree-link" d="M97,36C97,101 214,101 214,166"/><path class="vtree-link" d="M97,36C97,101 43,101 43,166"/><path class="vtree-link" d="M97,36C97,101 -176,101 -176,166"/><path class="vtree-link" d="M97,36C97,107 -377,107 -377,178"/><g class="vtree-node" transform="translate(-476,122)"><g transform="translate(0,20)"><g transform="translate(0,0)"><rect class="string-text" x="0" y="0" width="109" height="24"/><text x="4" y="20">id</text></g><g transform="translate(109,0)"><rect class="number-text" x="0" y="0" width="89" height="24"/><text x="4" y="20">0</text></g><g transform="translate(0,24)"><rect class="string-text" x="0" y="0" width="109" height="24"/><text x="4" y="20">category_name</text></g><g transform="translate(109,24)"><rect class="string-text" x="0" y="0" width="89" height="24"/><text x="4" y="20">case</text></g><g transform="translate(0,48)"><rect class="string-text" x="0" y="0" width="109" height="24"/><text x="4" y="20">category_type</text></g><g transform="translate(109,48)"><rect class="string-text" x="0" y="0" width="89" height="24"/><text x="4" y="20">Anaesthesia</text></g></g><g><text x="99" y="16" text-anchor="middle">category</text></g></g><g class="vtree-node" transform="translate(-268,122)"><g transform="translate(0,20)"><g transform="translate(0,0)"><rect class="string-text" x="0" y="0" width="97" height="24"/><text x="4" y="20">activity_name</text></g><g transform="translate(97,0)"><rect class="string-text" x="0" y="0" width="87" height="24"/><text x="4" y="20">Theatre List</text></g><g transform="translate(0,24)"><rect class="string-text" x="0" y="0" width="97" height="24"/><text x="4" y="20">id</text></g><g transform="translate(97,24)"><rect class="string-text" x="0" y="0" width="87" height="24"/><text x="4" y="20">0</text></g></g><g><text x="92" y="16" text-anchor="middle">activity_grouping</text></g></g><g class="vtree-node" transform="translate(-74,122)"><g transform="translate(0,20)"><g transform="translate(0,0)"><rect class="string-text" x="0" y="0" width="39" height="24"/><text x="4" y="20">start</text></g><g transform="translate(39,0)"><rect class="string-text" x="0" y="0" width="194" height="24"/><text x="4" y="20">2020-10-17T13:23:00+00:00</text></g><g transform="translate(0,24)"><rect class="string-text" x="0" y="0" width="39" height="24"/><text x="4" y="20">end</text></g><g transform="translate(39,24)"><rect class="string-text" x="0" y="0" width="194" height="24"/><text x="4" y="20">2020-10-17T13:45:00+00:00</text></g></g><g><text x="117" y="16" text-anchor="middle">timing</text></g></g><g class="vtree-node" transform="translate(336,122)"><path class="vtree-link" d="M-12,44C-12,44 109,44 109,44"/><path class="vtree-link" d="M-122,44C-122,44 -12,44 -12,44"/><g class="vtree-node" transform="translate(-167,0)"><g transform="translate(0,20)"><g transform="translate(0,0)"><rect class="string-text" x="0" y="0" width="35" height="24"/><text x="4" y="20">id</text></g><g transform="translate(35,0)"><rect class="number-text" x="0" y="0" width="55" height="24"/><text x="4" y="20">0</text></g><g transform="translate(0,24)"><rect class="string-text" x="0" y="0" width="35" height="24"/><text x="4" y="20">role</text></g><g transform="translate(35,24)"><rect class="string-text" x="0" y="0" width="55" height="24"/><text x="4" y="20">Patient</text></g></g><g><text x="45" y="16" text-anchor="middle">actors[0]</text></g></g><g class="vtree-node" transform="translate(-67,0)"><g transform="translate(0,20)"><g transform="translate(0,0)"><rect class="string-text" x="0" y="0" width="35" height="24"/><text x="4" y="20">id</text></g><g transform="translate(35,0)"><rect class="number-text" x="0" y="0" width="74" height="24"/><text x="4" y="20">1</text></g><g transform="translate(0,24)"><rect class="string-text" x="0" y="0" width="35" height="24"/><text x="4" y="20">role</text></g><g transform="translate(35,24)"><rect class="string-text" x="0" y="0" width="74" height="24"/><text x="4" y="20">Performer</text></g></g><g><text x="55" y="16" text-anchor="middle">actors[1]</text></g></g><g class="vtree-node" transform="translate(52,0)"><g transform="translate(0,20)"><g transform="translate(0,0)"><rect class="string-text" x="0" y="0" width="35" height="24"/><text x="4" y="20">id</text></g><g transform="translate(35,0)"><rect class="number-text" x="0" y="0" width="79" height="24"/><text x="4" y="20">2</text></g><g transform="translate(0,24)"><rect class="string-text" x="0" y="0" width="35" height="24"/><text x="4" y="20">role</text></g><g transform="translate(35,24)"><rect class="string-text" x="0" y="0" width="79" height="24"/><text x="4" y="20">Supervisor</text></g></g><g><text x="57" y="16" text-anchor="middle">actors[2]</text></g></g></g><g class="vtree-node" transform="translate(591,122)"><g class="vtree-node" transform="translate(-79,0)"><path class="vtree-link" d="M79,44C79,103 79,103 79,162"/><g class="vtree-node" transform="translate(23,118)"><g transform="translate(0,20)"><g transform="translate(0,0)"><rect class="string-text" x="0" y="0" width="80" height="24"/><text x="4" y="20">id</text></g><g transform="translate(80,0)"><rect class="number-text" x="0" y="0" width="31" height="24"/><text x="4" y="20">0</text></g><g transform="translate(0,24)"><rect class="string-text" x="0" y="0" width="80" height="24"/><text x="4" y="20">description</text></g><g transform="translate(80,24)"><rect class="string-text" x="0" y="0" width="31" height="24"/><text x="4" y="20">GA</text></g></g><g><text x="56" y="16" text-anchor="middle">event</text></g></g><g transform="translate(0,20)"><g transform="translate(0,0)"><rect class="string-text" x="0" y="0" width="81" height="24"/><text x="4" y="20">id</text></g><g transform="translate(81,0)"><rect class="number-text" x="0" y="0" width="76" height="24"/><text x="4" y="20">0</text></g><g transform="translate(0,24)"><rect class="string-text" x="0" y="0" width="81" height="24"/><text x="4" y="20">event_type</text></g><g transform="translate(81,24)"><rect class="string-text" x="0" y="0" width="76" height="24"/><text x="4" y="20">procedure</text></g></g><g><text x="79" y="16" text-anchor="middle">events[0]</text></g></g></g><g transform="translate(0,0)"><rect class="string-text" x="0" y="0" width="68" height="24"/><text x="4" y="20">name</text></g><g transform="translate(68,0)"><rect class="string-text" x="0" y="0" width="125" height="24"/><text x="4" y="20">encounter1</text></g><g transform="translate(0,24)"><rect class="string-text" x="0" y="0" width="68" height="24"/><text x="4" y="20">id</text></g><g transform="translate(68,24)"><rect class="string-text" x="0" y="0" width="125" height="24"/><text x="4" y="20">123456</text></g><g transform="translate(0,48)"><rect class="string-text" x="0" y="0" width="68" height="24"/><text x="4" y="20">comment</text></g><g transform="translate(68,48)"><rect class="string-text" x="0" y="0" width="125" height="24"/><text x="4" y="20">This is a comment</text></g></g></g></g></svg>